<svg
   xmlns="http://www.w3.org/2000/svg"
   width="60.972mm"
   height="46.012mm"
   fill="#fcfcfc"
   viewBox="0 0 60.971989 46.011681">
  <path
     d="m67.899 101.55 8.877 1.3333-0.81494-1.3333zm26.764 0-9.2263 15.502-6.0601-9.9146-11.477 1.724 12.168 1.8278-12.168 1.8278 12.168 1.8273-12.168 1.8278 12.168 1.8278-2.8675 0.43098 5.9516 9.5927h4.3222l6.3169-10.639 0.0832 13.257h8.9354l-0.0832-29.091zm9.1209 5.3e-4v6.6089c0.25564-0.79999 0.62796-1.5617 1.1229-2.2841 1.0236-1.494 2.5454-2.6703 4.5651-3.528 0.78665-0.32954 1.638-0.59394 2.5513-0.79685zm18.148 0c0.27408 0.0541 0.54719 0.1115 0.81958 0.17468 1.9367 0.415 3.6383 1.0376 5.1046 1.8676l-2.9466 7.0962c-2.8496-1.4387-5.5472-2.158-8.0925-2.158-2.5176 0-3.7765 0.60841-3.7765 1.8257 0 0.581 0.37335 1.0238 1.1203 1.3281 0.747 0.27667 1.9785 0.58113 3.6938 0.91313 2.2133 0.41499 4.0806 0.89929 5.6022 1.4526 1.5216 0.52568 2.8357 1.3975 3.9424 2.6148 0.7184 0.77094 1.2083 1.7197 1.4718 2.8458v-17.961zm-44.602 2.2386-9.4304 1.4164 11.337 1.7033zm26.454 9.8898v12.805l2.2846-5.1712c1.3833 0.80229 2.933 1.4522 4.6483 1.9502 1.7153 0.47035 3.3617 0.70541 4.9387 0.70541 1.3557 0 2.3237-0.12412 2.9047-0.37312 0.58099-0.27665 0.87178-0.67789 0.87178-1.2035 0-0.60868-0.38754-1.0651-1.1622-1.3694-0.747-0.30435-1.9922-0.63667-3.7352-0.99632-2.241-0.47035-4.1083-0.9683-5.6022-1.494-1.494-0.55332-2.7944-1.4383-3.901-2.6556-0.55512-0.62452-0.97081-1.3575-1.2475-2.1978zm-26.95 4.8064-8.9349 1.342 8.9349 1.342zm0 3.6556-8.4274 1.2661 8.4274 1.2656zm52.037 1.54c-0.24245 1.0437-0.67614 2.0257-1.3054 2.944-1.0236 1.4663-2.5591 2.6421-4.6064 3.5274-0.43354 0.1841-0.89148 0.34428-1.3658 0.48885h7.2776zm-52.037 1.9632-8.9349 1.342 8.9349 1.342zm26.95 3.298v1.6991h4.6979c-1.829-0.44847-3.3924-1.016-4.6979-1.6991zm-26.95 0.35711-8.9349 1.342h8.9349zm35.212 9.5865c-0.76697 0-1.4181 0.11557-1.9534 0.34727-0.5273 0.2317-0.92284 0.54724-1.1865 0.94671-0.26366 0.39147-0.39533 0.83092-0.39533 1.3183 0 0.55927 0.14336 1.0065 0.43098 1.342 0.29561 0.33555 0.64726 0.57939 1.0547 0.73123 0.40745 0.15179 0.93078 0.30345 1.5699 0.45527 0.41544 0.0959 0.7432 0.18365 0.98288 0.26355 0.24767 0.0799 0.44713 0.18817 0.59893 0.32401 0.15979 0.12782 0.23978 0.29117 0.23978 0.49091 0 0.27162-0.13168 0.49162-0.39532 0.65939-0.26365 0.15981-0.6714 0.23979-1.2227 0.23979-0.49534 0-0.99034-0.08-1.4857-0.23979-0.49534-0.15978-0.92309-0.37145-1.2826-0.6351l-0.65888 1.4619c0.3755 0.28762 0.87104 0.52318 1.4862 0.70694 0.62318 0.17576 1.266 0.26355 1.9291 0.26355 0.76698 0 1.4181-0.11557 1.9534-0.34727 0.53528-0.23169 0.93472-0.54335 1.1984-0.93482 0.27164-0.39947 0.40773-0.83889 0.40773-1.3183 0-0.55925-0.14777-1.0026-0.44338-1.3302-0.28761-0.32756-0.63537-0.567-1.0428-0.71882-0.40746-0.15179-0.93078-0.30398-1.5699-0.45577-0.61518-0.13581-1.0746-0.27139-1.3782-0.40722-0.29561-0.1438-0.44339-0.35936-0.44339-0.64699 0-0.2876 0.12778-0.5193 0.38344-0.69506 0.26365-0.17579 0.6675-0.26405 1.2108-0.26405 0.77497 0 1.55 0.21997 2.3249 0.65939l0.59893-1.4743c-0.38349-0.23966-0.83071-0.42301-1.342-0.55086-0.51132-0.12782-1.0346-0.19172-1.5699-0.19172zm-30.593 0.14365v8.3886h6.4957v-1.558h-4.5661v-1.941h3.8949v-1.51h-3.8949v-1.8216h4.4101v-1.558zm8.0517 0v8.3886h1.8216v-4.9253l2.4567 4.0385h0.87488l2.4691-4.1465 0.01189 5.0333h1.8216l-0.02429-8.3886h-1.5937l-3.0918 5.2131-3.1399-5.2131zm11.446 0v8.3886h6.4952v-1.558h-4.5656v-1.941h3.8948v-1.51h-3.8948v-1.8216h4.4101v-1.558z"
     transform="translate(-67.899 -101.55)" />
</svg>
